<svg width="120" height="32" viewBox="0 0 120 32" fill="none" xmlns="http://www.w3.org/2000/svg">
<path d="M78.2632 10.9573C79.4211 10.9573 80.4737 11.2731 81.4211 11.8521C82.3684 12.4837 83.1579 13.3258 83.6316 14.3258C84.2105 15.431 84.4737 16.6942 84.4737 17.9573C84.4737 19.3258 84.2105 20.4837 83.6842 21.5889C83.2105 22.5889 82.4211 23.4837 81.4737 24.1152C80.5263 24.6942 79.4737 25.01 78.3684 25.01C77.5789 25.01 76.7895 24.8521 76.1053 24.5363C75.4211 24.2205 74.8421 23.8521 74.3158 23.3258V23.4837C74.3158 23.9047 74.1579 24.2731 73.8947 24.5889C73.6316 24.9047 73.2632 25.01 72.7895 25.01C72 25.01 71.3158 24.3784 71.2632 23.5889V7.53629C71.2632 7.11524 71.4211 6.74682 71.6842 6.43103C71.9474 6.11524 72.3684 5.95734 72.7895 6.00997C73.2105 6.00997 73.5789 6.16787 73.8947 6.43103C74.1579 6.74682 74.3158 7.11524 74.3158 7.53629V12.7994C74.7895 12.2205 75.3684 11.7994 76 11.4837C76.6842 11.1152 77.4737 10.9573 78.2632 10.9573ZM51.7368 21.8521C51.9474 21.8521 52.2105 21.9573 52.3684 22.1679C52.5789 22.3784 52.6842 22.6942 52.6842 23.0626C52.6842 23.5363 52.4211 23.9047 51.9474 24.2205C51.4737 24.5363 50.8947 24.6942 50.2632 24.6942C49.3158 24.7468 48.4211 24.4837 47.6316 24.01C46.8947 23.5889 46.5789 22.5889 46.5789 21.1679V14.2205H45.4211C44.6842 14.2731 44.0526 13.6416 44 12.9047V12.7994C44 12.431 44.1579 12.0626 44.4211 11.7994C44.6842 11.5363 45.0526 11.431 45.4211 11.431H46.5789V9.79945C46.5789 9.37839 46.7368 9.00997 47 8.69418C47.2632 8.37839 47.6842 8.2205 48.1053 8.27313C48.5263 8.27313 48.8947 8.43103 49.1579 8.69418C49.4211 9.00997 49.5789 9.37839 49.5789 9.79945V11.431H51.3684C52.1053 11.3784 52.7368 12.01 52.7895 12.7468V12.8521C52.7895 13.5889 52.1579 14.2205 51.4211 14.2205H49.5789V21.0626C49.5789 21.431 49.6842 21.6942 49.8421 21.8521C50.0526 22.01 50.2632 22.1152 50.5789 22.1152C50.6873 22.1152 50.7956 22.0905 50.938 22.0579C51.0031 22.043 51.0753 22.0265 51.1579 22.01C51.3684 21.9047 51.5263 21.8521 51.7368 21.8521ZM66.4737 10.9573C67.2632 10.9573 67.9474 11.5889 68 12.3784V23.1679C68 23.5889 67.8421 23.9573 67.5789 24.2731C67.3158 24.5889 66.9474 24.6942 66.4737 24.6942C66.0526 24.6942 65.6842 24.5363 65.4211 24.2731C65.1579 23.9573 65 23.5889 65 23.1679C64.5263 23.6942 63.9474 24.1152 63.3158 24.431C62.6316 24.7468 61.8421 24.9573 61.0526 24.9573C59.8947 24.9573 58.8421 24.6416 57.8947 24.0626C56.9474 23.431 56.1579 22.5889 55.6842 21.5889C55.1157 20.4637 54.8268 19.218 54.8421 17.9573C54.8421 16.5889 55.1053 15.431 55.6316 14.3258C56.1053 13.3258 56.8947 12.431 57.8421 11.7994C58.7895 11.2205 59.8421 10.9047 60.9474 10.9047C62.4737 10.9047 63.8947 11.431 65 12.4837C65 12.0626 65.1579 11.6942 65.4211 11.3784C65.6842 11.0626 66.0526 10.9047 66.4737 10.9573ZM64.0526 20.9573C64.7386 20.1085 65.1105 19.0487 65.1053 17.9573C65.1053 16.7468 64.7368 15.7468 64.0526 14.9047C63.396 14.1043 62.4031 13.6565 61.3684 13.6942C60.2632 13.6942 59.4211 14.1152 58.7368 14.9047C58.0526 15.7468 57.6842 16.8521 57.6842 17.9573C57.6842 19.1679 58.0526 20.1679 58.6842 20.9573C59.3684 21.7468 60.3684 22.2205 61.3684 22.1679C62.4737 22.1679 63.3684 21.7468 64.0526 20.9573ZM80.5263 20.9573C81.2105 20.1152 81.5789 19.01 81.5789 17.9047C81.5789 16.6942 81.2632 15.6942 80.5789 14.9047C79.9139 14.1152 78.9267 13.67 77.8947 13.6942C76.7895 13.6942 75.8947 14.1152 75.2105 14.9047C74.532 15.7577 74.1611 16.8147 74.1579 17.9047C74.1579 19.1152 74.4737 20.1152 75.2105 20.9573C75.8947 21.7468 76.8947 22.2205 77.8947 22.1679C79 22.1679 79.8421 21.7468 80.5263 20.9573ZM90.3158 23.1679C90.3158 23.5889 90.1579 23.9573 89.8947 24.2731C89.6316 24.5889 89.2105 24.6942 88.7895 24.6942C88.3684 24.6942 88 24.5363 87.7368 24.2731C87.4737 23.9573 87.3158 23.5889 87.3158 23.1679V7.53629C87.3158 7.11524 87.4737 6.74682 87.7368 6.43103C88.0526 6.11524 88.4211 5.95734 88.8421 6.00997C89.2632 6.00997 89.6316 6.16787 89.8947 6.43103C90.2105 6.74682 90.3158 7.11524 90.3158 7.53629V23.1679ZM105.263 18.6416C105.579 18.3784 105.737 18.0626 105.737 17.6416C105.737 15.2731 104.474 13.0626 102.632 11.7994C101.632 11.2205 100.579 10.9047 99.4737 10.9047C98.3158 10.9047 97.2632 11.2205 96.2632 11.7994C95.2105 12.431 94.4211 13.2731 93.8421 14.3258C93.2632 15.3784 92.9474 16.6416 92.9474 18.1152C92.8947 19.3784 93.2105 20.5889 93.7895 21.6416C94.3684 22.6416 95.1579 23.4837 96.2105 24.0626C97.2632 24.6416 98.4737 24.9573 99.8947 24.9573C100.737 24.9573 101.526 24.7994 102.316 24.5363C103.105 24.2731 103.737 23.9047 104.211 23.5363C104.684 23.2205 104.895 22.7994 104.895 22.3258C104.895 21.9573 104.789 21.6942 104.526 21.431C104.263 21.1679 104 21.0626 103.632 21.0626C103.368 21.0626 103.053 21.1152 102.789 21.2731L102.316 21.5363C102 21.7468 101.684 21.8521 101.368 21.9573C100.947 22.1152 100.421 22.1679 99.7368 22.1679C97.8421 22.2205 96.2105 20.8521 95.8947 19.01H104.211C104.632 19.01 104.947 18.9047 105.263 18.6416ZM99.3158 13.6942C100.105 13.6942 100.842 13.9573 101.421 14.431C102 14.9047 102.421 15.5363 102.474 16.2731V16.431H95.8421C96.2105 14.5889 97.3684 13.6942 99.3158 13.6942ZM116.526 11.3784C116.211 11.1152 115.789 10.9573 115.263 10.9573C114.474 10.9573 113.684 11.1152 113 11.4837C112.263 11.8521 111.684 12.3784 111.316 13.0626V12.7468C111.316 12.3258 111.211 11.9573 110.895 11.6416C110.579 11.3784 110.211 11.2205 109.789 11.2205C109.368 11.1679 108.947 11.3258 108.684 11.6416C108.421 11.9573 108.263 12.3258 108.263 12.7468V23.1152C108.263 23.5363 108.421 23.9047 108.684 24.2205C109 24.4837 109.316 24.6416 109.789 24.6416C110.263 24.6416 110.632 24.5363 110.895 24.2205C111.158 23.9047 111.316 23.5363 111.316 23.1152V17.1152C111.263 16.431 111.421 15.7994 111.684 15.1679C111.895 14.6942 112.263 14.2731 112.684 13.9573C113.211 13.5889 113.895 13.4837 114.526 13.6416L114.842 13.7468C115.158 13.8521 115.421 13.9047 115.684 13.9047C116.053 13.9573 116.368 13.7994 116.632 13.5363C116.947 13.2731 117.053 12.9047 117.053 12.3784C117.053 12.01 116.842 11.6416 116.526 11.3784Z" fill="#000427"/>
<path fill-rule="evenodd" clip-rule="evenodd" d="M7.10695 0.711944C13.0023 -0.237315 18.9977 -0.237315 24.8931 0.711944C28.0406 1.51132 30.4887 3.95941 31.2881 7.10695C32.2373 13.0023 32.2373 18.9977 31.2881 24.8931C30.4887 28.0406 28.0406 30.4887 24.8931 31.2881C18.9977 32.2373 13.0023 32.2373 7.10695 31.2881C3.95941 30.4887 1.51132 28.0406 0.711944 24.8931C-0.237315 18.9977 -0.237315 13.0023 0.711944 7.10695C1.51132 3.95941 3.95941 1.51132 7.10695 0.711944Z" fill="#066FD1"/>
<path d="M17.8824 9.07588L19.3821 6.58826L26.3529 13.5649L23.8604 15.0588L17.8824 9.07588Z" fill="white"/>
<path d="M9.92267 12.2026L17.7366 11.2941L21.6471 14.9538L20.6729 22.2411L11.0903 24.3996C10.349 24.5617 9.56904 24.4435 8.92088 24.071L14.1647 19.1741C15.0756 19.5809 16.1682 19.3163 16.7516 18.5476C17.3351 17.7789 17.2396 16.7299 16.5255 16.0639C15.8115 15.398 14.6867 15.3089 13.8624 15.8531C13.0381 16.3972 12.7544 17.4162 13.1906 18.2656L7.94673 23.156C7.55379 22.5515 7.43216 21.8269 7.60819 21.1393L9.92267 12.2026Z" fill="white"/>
</svg>
